# xmcd
#
# Track frame offsets:
#	150
#	19650
#	42900
#	74550
#	95100
#	116400
#	150750
#
# Disc length: 2292 seconds
#
# Revision: 0
# Processed by: cddbd v1.5.1PL0 Copyright (c) Steve Scherf et al.
# Submitted via: EasyCDDAExtractor 4.6.9.1
#
DISCID=5108f207
DTITLE=Shaquetrà - Cabo Europa
DYEAR=1900
DGENRE=
TTITLE0=4 chiacchere
TTITLE1=madrugada
TTITLE2=europe travelling
TTITLE3=ciel sanglant
TTITLE4=lola
TTITLE5=questa notte
TTITLE6=strano
EXTD=
EXTT0=
EXTT1=
EXTT2=
EXTT3=
EXTT4=
EXTT5=
EXTT6=
PLAYORDER=
